<?xml version="1.0" encoding="utf-8"?>
<!-- Generator: Adobe Illustrator 23.0.0, SVG Export Plug-In . SVG Version: 6.00 Build 0)  -->
<svg version="1.1" id="Layer_1" xmlns="http://www.w3.org/2000/svg" xmlns:xlink="http://www.w3.org/1999/xlink" x="0px" y="0px"
	 viewBox="0 0 432 432" style="enable-background:new 0 0 432 432;" xml:space="preserve">
<g>
	<path d="M216.73,6.29c3.45,1.43,4.12,2.45,4.12,6.29c0,5.83,0.01,11.66-0.01,17.49c-0.01,2.2-1.3,4-3.28,4.67
		c-1.91,0.64-4.11,0.12-5.26-1.54c-0.61-0.89-1.09-2.07-1.11-3.13c-0.1-6.28-0.08-12.56-0.04-18.83c0.02-2.71,1.67-4.19,4.1-4.96
		C215.75,6.29,216.24,6.29,216.73,6.29z"/>
	<path d="M216.19,259.7c-9.25,0-18.51-0.09-27.76,0.05c-3.31,0.05-5.81-2.01-5.77-5.67c0.06-5.68-0.6-11.3-3.1-16.54
		c-2.04-4.28-5.03-7.89-8.19-11.36c-7.81-8.55-15.47-17.21-22.55-26.39c-7.38-9.58-13.22-19.91-16.54-31.6
		c-2.82-9.93-3.84-20.03-3.14-30.32c2.3-33.99,25.07-65.2,59.92-76.6c11.05-3.62,22.39-4.98,33.97-4.01
		c38.24,3.18,69.57,30.6,78,67.67c2.07,9.09,2.62,18.3,1.71,27.56c-1.65,16.87-7.87,31.93-18.12,45.42
		c-7.16,9.42-14.87,18.37-22.81,27.13c-3.23,3.57-6.37,7.21-8.58,11.54c-2.51,4.9-3.24,10.2-3.47,15.6
		c-0.03,0.77-0.02,1.55-0.03,2.32c-0.02,3.21-1.98,5.19-5.17,5.19C235.1,259.7,225.64,259.7,216.19,259.7z M192.65,249.97
		c-0.03,0,0.17,0.03,0.36,0.03c15.37,0,30.74-0.01,46.11,0.02c0.99,0,1.09-0.43,1.14-1.24c0.26-4.82,1.08-9.53,2.94-14.02
		c2.23-5.4,5.81-9.89,9.66-14.17c8.75-9.73,17.49-19.46,25.17-30.09c14.2-19.66,18.81-41.38,13.1-64.94
		c-9.91-40.91-51.33-67.18-94-56.55c-32.64,8.13-56.07,36.29-58.38,69.84c-0.89,12.89,1.35,25.28,6.65,37.12
		c3.58,8,8.58,15.08,14.15,21.75c6.82,8.16,13.9,16.1,20.89,24.12c4.12,4.73,8,9.65,9.71,15.79
		C191.24,241.6,191.8,245.72,192.65,249.97z"/>
	<path d="M142.5,409.84c-0.38-0.49-0.75-0.89-1.03-1.35c-5.99-9.57-11.98-19.14-17.96-28.71c-2.67-4.27-2.6-8.52,0.07-12.77
		c5.7-9.08,11.37-18.17,17.07-27.24c0.5-0.8,0.5-1.23-0.43-1.69c-2.51-1.26-4.98-2.62-7.46-3.94c-0.26-0.14-0.5-0.34-0.98-0.68
		c2.57-0.37,4.84-0.71,7.12-1.03c9.2-1.3,18.4-2.57,27.6-3.9c0.88-0.13,1.25,0.16,1.57,0.91c4.11,9.72,8.24,19.43,12.36,29.14
		c0.1,0.25,0.17,0.51,0.32,0.97c-0.46-0.18-0.76-0.27-1.02-0.41c-2.48-1.32-4.98-2.62-7.43-4c-0.91-0.51-1.39-0.37-1.95,0.53
		c-7.76,12.45-15.55,24.88-23.33,37.31c-1.21,1.93-2.4,3.88-3.65,5.79c-2.13,3.29-2.61,6.71-0.93,10.33
		c0.07,0.15,0.11,0.3,0.15,0.46C142.63,409.61,142.59,409.65,142.5,409.84z"/>
	<path d="M271.92,294.35c-0.63,1.51-1.12,2.7-1.62,3.89c-3.68,8.71-7.37,17.41-11.02,26.13c-0.35,0.84-0.74,1.17-1.72,1.03
		c-11.18-1.6-22.36-3.15-33.54-4.71c-0.27-0.04-0.53-0.12-1.08-0.24c0.44-0.3,0.66-0.49,0.91-0.62c2.45-1.3,4.88-2.62,7.35-3.88
		c0.92-0.47,1.13-0.9,0.52-1.87c-8.96-14.25-17.91-28.5-26.79-42.79c-2.14-3.44-5.02-5.6-9.06-6.16c-0.11-0.02-0.22-0.09-0.7-0.3
		c0.83-0.11,1.31-0.22,1.79-0.22c11.94,0,23.89-0.01,35.83,0.03c5.17,0.02,9.1,2.2,11.86,6.67c5.53,8.99,11.2,17.89,16.78,26.85
		c0.56,0.89,0.99,1.19,2.02,0.59c2.47-1.42,5.02-2.71,7.54-4.05C271.17,294.61,271.37,294.56,271.92,294.35z"/>
	<path d="M304.84,379.27c-0.23,0.44-0.43,0.91-0.7,1.33c-5.99,9.57-11.99,19.12-17.97,28.69c-2.66,4.25-6.55,6.25-11.46,6.27
		c-11.33,0.05-22.66,0.02-33.99,0.02c-2.06,0-2.06,0-2.06,2c0,2.4,0.01,4.81,0.01,7.21c0,0.23-0.04,0.46-0.09,0.92
		c-0.38-0.33-0.63-0.5-0.82-0.72c-7.03-8.08-14.05-16.18-21.1-24.25c-0.63-0.72-0.69-1.14-0.03-1.91
		c7.12-8.17,14.19-16.39,21.28-24.58c0.14-0.16,0.35-0.27,0.76-0.56c0,1.31,0,2.39,0,3.46c0,1.83,0.02,3.67-0.02,5.5
		c-0.02,0.88,0.32,1.31,1.22,1.25c0.2-0.01,0.41,0,0.61,0c17.77,0,35.54-0.03,53.31,0.02c4.25,0.01,7.84-1.24,10.58-4.59
		c0.07-0.08,0.18-0.12,0.28-0.17C304.71,379.19,304.77,379.23,304.84,379.27z"/>
	<path d="M280.28,327.63c0.41,0.63,0.69,1.06,0.97,1.49c7.2,11.5,14.4,23,21.6,34.5c3.13,5.01,0.76,12.24-5.02,14.81
		c-1.7,0.76-3.68,1.2-5.54,1.25c-6.03,0.16-12.06,0.09-18.1,0.03c-0.54-0.01-1.28-0.52-1.59-1.01c-4.39-6.92-8.71-13.87-13.06-20.81
		c-2.79-4.46-5.58-8.91-8.37-13.36c-0.16-0.26-0.29-0.54-0.56-1.03c0.56,0.05,0.9,0.07,1.23,0.12c6.46,0.91,12.91,1.81,19.37,2.76
		c1,0.15,1.28-0.44,1.58-1.15c2.36-5.59,4.72-11.18,7.08-16.77C279.96,328.26,280.06,328.09,280.28,327.63z"/>
	<path d="M188.48,325.9c-1.03-2.41-1.98-4.65-2.93-6.88c-1.51-3.56-3.04-7.12-4.52-10.69c-0.37-0.9-0.84-1.2-1.85-1.04
		c-6.45,0.97-12.91,1.86-19.36,2.77c-0.23,0.03-0.47,0-0.93,0c0.85-1.39,1.61-2.66,2.39-3.92c6.6-10.53,13.2-21.06,19.81-31.58
		c2.53-4.03,7.56-6.19,12.26-5.4c3.95,0.66,6.88,2.69,8.96,6.12c2.7,4.46,5.5,8.86,8.3,13.26c0.49,0.77,0.6,1.36,0.07,2.2
		c-7.24,11.52-14.45,23.06-21.67,34.6C188.92,325.47,188.79,325.57,188.48,325.9z"/>
	<path d="M203.13,384.34c-2.51,2.9-4.86,5.61-7.2,8.31c-1.87,2.16-3.7,4.34-5.62,6.45c-0.66,0.73-0.69,1.18-0.02,1.94
		c4.12,4.67,8.2,9.39,12.29,14.1c0.13,0.15,0.24,0.32,0.41,0.56c-0.24,0.1-0.41,0.22-0.57,0.22c-14.71,0-29.42-0.01-44.14-0.04
		c-5.16-0.01-9.6-3.11-11.15-7.82c-0.97-2.94-0.66-5.83,0.96-8.47c2.98-4.86,6.02-9.69,9.1-14.49c0.28-0.44,1.03-0.81,1.56-0.82
		c14.51-0.05,29.02-0.05,43.53-0.05C202.46,384.24,202.65,384.28,203.13,384.34z"/>
	<path d="M215.36,346.8c4.6,0,9.2,0.04,13.81-0.03c1.2-0.02,1.52,0.36,1.48,1.53c-0.11,2.72,0.13,5.47-0.14,8.18
		c-0.79,7.96-8.19,13.77-16.43,12.95c-6.51-0.65-11.11-3.94-13.26-10.24c-0.43-1.25-0.55-2.63-0.6-3.96
		c-0.09-2.4,0.02-4.81-0.05-7.21c-0.03-0.99,0.32-1.24,1.27-1.24C206.08,346.82,210.72,346.8,215.36,346.8z"/>
	<path d="M308,85.43c0.02-1.1,0.74-2.56,2.3-3.47c5.52-3.22,11.04-6.43,16.6-9.57c2.34-1.32,5.19-0.48,6.49,1.75
		c1.35,2.32,0.67,5.18-1.71,6.58c-5.47,3.22-10.96,6.4-16.5,9.51C311.9,92.07,308.03,89.8,308,85.43z"/>
	<path d="M267.01,44.88c0.22-0.63,0.41-1.56,0.85-2.35c3.03-5.34,6.1-10.66,9.2-15.97c1.52-2.61,4.37-3.41,6.8-1.99
		c2.35,1.38,3.03,4.25,1.55,6.82c-3.08,5.37-6.17,10.72-9.28,16.07c-1.04,1.79-2.64,2.66-4.68,2.47c-2.04-0.19-3.47-1.31-4.12-3.3
		C267.18,46.17,267.15,45.67,267.01,44.88z"/>
	<path d="M124,85.46c-0.01,4.36-3.92,6.6-7.26,4.73c-4.22-2.37-8.4-4.82-12.59-7.24c-1.23-0.71-2.48-1.4-3.7-2.14
		c-2.46-1.49-3.23-4.27-1.87-6.64c1.34-2.32,4.22-3.1,6.69-1.69c5.44,3.1,10.86,6.25,16.28,9.38
		C123.18,82.81,123.95,84.25,124,85.46z"/>
	<path d="M165.03,45.19c-0.17,2.19-1.56,4.04-3.56,4.59c-2.2,0.61-4.35-0.22-5.55-2.26c-2.63-4.49-5.22-9.01-7.82-13.52
		c-0.57-0.99-1.17-1.96-1.69-2.97c-1.24-2.39-0.46-5.18,1.79-6.48c2.27-1.31,5.15-0.67,6.51,1.64c3.26,5.53,6.45,11.11,9.62,16.7
		C164.72,43.58,164.8,44.42,165.03,45.19z"/>
	<path d="M215.28,345.47c-4.85,0-9.7,0-14.55,0c-0.53,0-1.06,0-1.59-0.04c-1.34-0.09-2.16-0.88-2.13-2.02
		c0.02-1.14,0.86-1.9,2.21-1.97c0.73-0.04,1.47-0.01,2.2-0.02c1.65-0.01,1.66-0.02,1.66-1.62c0-3.02-0.01-6.03-0.02-9.05
		c-0.01-1.98,1.06-3.16,2.88-3.19c1.77-0.03,2.94,1.17,2.96,3.15c0.03,3.1,0.03,6.2-0.02,9.29c-0.02,1.03,0.28,1.46,1.39,1.44
		c3.42-0.06,6.85-0.04,10.27,0c0.99,0.01,1.38-0.31,1.36-1.34c-0.05-3.14-0.04-6.28-0.03-9.42c0.01-1.93,1.08-3.09,2.83-3.12
		c1.81-0.03,3,1.16,3.01,3.09c0.02,3.1,0.03,6.2-0.02,9.29c-0.02,1.09,0.3,1.62,1.46,1.49c0.69-0.07,1.38-0.03,2.08-0.02
		c1.54,0.03,2.56,0.86,2.54,2.06c-0.01,1.16-0.96,1.96-2.47,1.97C225.96,345.48,220.62,345.47,215.28,345.47
		C215.28,345.47,215.28,345.47,215.28,345.47z M222.82,332.62c-0.01,0-0.02,0-0.03,0c0,0.77,0.02,1.54,0,2.31
		c-0.02,0.77,0.43,1.07,1.07,0.94c0.98-0.2,2.53,0.74,2.83-0.69c0.35-1.67,0.15-3.47,0.01-5.2c-0.08-1.03-1.13-1.68-2.15-1.53
		c-1.05,0.15-1.68,0.77-1.73,1.86C222.79,331.08,222.82,331.85,222.82,332.62z M207.96,332.63c-0.01,0-0.01,0-0.02,0
		c0-0.77,0.04-1.55-0.01-2.32c-0.07-1.12-0.94-1.91-1.99-1.89c-1.06,0.02-1.92,0.83-1.94,1.94c-0.04,1.5,0.01,3.01-0.01,4.52
		c-0.01,0.73,0.32,0.98,1.03,1.02c2.98,0.17,2.97,0.19,2.95-2.78C207.95,332.96,207.96,332.79,207.96,332.63z"/>
	<path d="M218.56,370.63c0,0.75,0,1.39,0,2.02c0,3.74,0.02,7.48,0,11.22c-0.01,2.05-1.17,3.23-3.13,3.27
		c-1.89,0.04-3.21-1.2-3.23-3.2c-0.05-4.15-0.02-8.29-0.03-12.44c0-0.59,0.13-0.9,0.81-0.89
		C214.77,370.65,216.55,370.63,218.56,370.63z"/>
	<path d="M235.38,146.87c-7.53,3.97-13.77,1.68-19.26-4c-0.97,0.77-1.81,1.4-2.6,2.09c-4.73,4.18-9.99,4.95-15.77,2.47
		c-0.37-0.16-0.75-0.27-1.31-0.47c0.18,0.47,0.28,0.79,0.43,1.1c5.35,11.35,9.41,23.14,11.38,35.54c1.11,7.02,1.9,14.13,2.31,21.23
		c0.53,9.27,0.55,18.57,0.75,27.86c0.05,2.1-1.2,3.81-3.11,4.53c-1.79,0.68-3.86,0.21-5.18-1.17c-0.99-1.03-1.34-2.3-1.35-3.69
		c-0.03-3.22,0.05-6.44-0.08-9.66c-0.37-8.79-0.57-17.6-1.31-26.36c-1.59-18.58-7.36-35.93-16.19-52.31
		c-0.85-1.58-1.7-3.15-2.57-4.71c-1.09-1.97-0.93-4.21,0.44-5.8c1.34-1.55,3.49-2.14,5.55-1.27c3.41,1.44,6.74,3.05,10.13,4.52
		c1.71,0.74,3.46,1.41,5.23,1.97c1.54,0.49,2.97,0.04,4.22-0.99c1.8-1.47,3.61-2.92,5.38-4.43c2.31-1.97,4.76-1.98,7.05-0.03
		c1.61,1.38,3.31,2.66,4.88,4.07c1.77,1.58,3.73,1.96,5.89,1.12c1.85-0.72,3.66-1.56,5.48-2.37c2.86-1.27,5.69-2.6,8.58-3.8
		c2.23-0.93,4.38-0.39,5.77,1.25c1.4,1.66,1.46,3.9,0.26,6.03c-8.16,14.44-14.53,29.59-17.14,46.06
		c-1.15,7.22-1.84,14.54-2.27,21.84c-0.48,8.25-0.43,16.54-0.6,24.81c-0.05,2.48-1.18,4.22-3.24,4.96c-1.9,0.68-4.13,0.19-5.27-1.48
		c-0.64-0.95-1.13-2.24-1.11-3.36c0.23-10.51,0.4-21.03,0.95-31.52c0.61-11.86,2.58-23.54,6.39-34.82c2.03-6,4.6-11.81,6.93-17.7
		c0.16-0.4,0.34-0.8,0.51-1.19C235.47,147.06,235.43,146.97,235.38,146.87z"/>
	<path d="M214.9,76.99c0.52,0.03,1.4-0.03,2.22,0.16c2.38,0.54,3.99,2.83,3.73,5.17c-0.28,2.49-2.25,4.21-4.92,4.39
		c-3,0.21-6.03,0.27-8.99,0.75c-12.15,1.94-22.42,7.53-30.93,16.37c-4.62,4.8-8.24,10.28-10.87,16.4c-0.84,1.96-2.33,3.05-4.41,3.13
		c-1.83,0.07-3.33-0.75-4.27-2.37c-0.9-1.56-0.81-3.17-0.09-4.8c6.61-14.9,17.23-25.92,31.92-32.97
		C196.58,79.24,205.37,77.28,214.9,76.99z"/>
	<path d="M151,144.52c0.06-1.17-0.01-2.37,0.19-3.52c0.43-2.52,2.6-4.03,5.28-3.82c2.28,0.19,4.19,2.22,4.21,4.62
		c0.06,7.49,1.45,14.71,4.33,21.64c1.08,2.6-0.14,5.42-2.62,6.4c-2.52,1-5.2-0.16-6.31-2.8C153.05,159.84,151.42,152.33,151,144.52z
		"/>
</g>
</svg>
