<?xml version="1.0" encoding="utf-8"?>
<!-- Generator: Adobe Illustrator 23.0.0, SVG Export Plug-In . SVG Version: 6.00 Build 0)  -->
<svg version="1.1" id="Layer_1" xmlns="http://www.w3.org/2000/svg" xmlns:xlink="http://www.w3.org/1999/xlink" x="0px" y="0px"
	 viewBox="0 0 432 432" style="enable-background:new 0 0 432 432;" xml:space="preserve">
<g>
	<path d="M97.55,220.99c-0.55-0.18-0.87-0.31-1.2-0.4c-9.38-2.39-18.33-5.87-26.84-10.47c-6.13-3.32-12-7.08-17.28-11.63
		c-4.36-3.76-8.62-7.72-12.45-12.01c-6.44-7.21-11.71-15.26-15.72-24.12c-2.72-5.99-4.9-12.15-6.44-18.54
		c-2.47-10.3-3.25-20.71-2.34-31.28c1.65-19.01,8.19-36.18,19.32-51.59c9.96-13.8,22.55-24.62,37.93-32
		c4.48-2.15,9.19-3.91,13.94-5.42c5.02-1.61,10.22-2.52,15.49-3.09c7.08-0.76,14.12-0.62,21.14,0.41
		c11.91,1.76,22.87,6.13,33.18,12.27c4.46,2.65,8.7,5.61,12.59,9.01c8.54,7.48,15.35,16.31,20.38,26.52
		c6.17,12.52,9.08,25.74,8.43,39.67c-0.87,18.64-7.64,34.93-20.14,48.77c-6.61,7.32-14.32,13.28-23.24,17.5
		c-4.39,2.07-8.96,3.92-13.63,5.18c-13.98,3.76-27.95,3.78-41.7-1.32c-6.61-2.45-12.67-5.87-18.23-10.23
		c-4.74-3.72-8.92-7.96-12.48-12.8c-3.91-5.31-7.02-11.05-9.17-17.32c-2.41-7.04-3.53-14.26-3.32-21.68
		c0.42-14.51,5.21-27.27,15.18-37.99c5.51-5.92,12.03-10.41,19.38-13.66c3.6-1.59,7.39-2.66,11.29-3.38
		c10.78-1.98,21.03-0.53,30.82,4.36c9.8,4.89,16.36,12.75,20.69,22.65c2.38,5.44,3.79,11.11,4.05,17.05
		c0.35,7.75-1.16,15.05-5.7,21.51c-2.98,4.24-6.86,7.46-11.58,9.62c-2.39,1.1-4.79,2.2-7.25,3.12c-4.05,1.5-8.28,1.76-12.54,1.35
		c-6.04-0.58-11.5-2.67-16.27-6.48c-6.64-5.29-10.64-15.3-8.02-23.36c1.62-5,5.08-8.29,9.97-10.15c4.25-1.61,8.51-1.89,12.88-0.47
		c1.63,0.53,2.91,1.46,3.97,2.71c2.33,2.74,4.68,5.47,6.14,8.82c0.1,0.24,0.29,0.43,0.53,0.78c1.89-2.43,2.8-5.04,2.68-7.98
		c-0.11-2.83-1.01-5.44-2.6-7.75c-3.61-5.25-8.46-8.87-14.7-10.31c-4.19-0.97-8.38-0.67-12.54,0.59
		c-12.47,3.79-20.14,16.37-20.69,28.04c-0.27,5.7,0.21,11.28,2.25,16.62c1.47,3.87,3.56,7.4,6.33,10.53
		c7.81,8.84,17.93,12.88,29.36,14.14c4.86,0.53,9.74,0.23,14.53-0.71c11.75-2.32,21.27-8.31,28.41-17.92
		c9.1-12.25,11.93-26.03,9.58-40.98c-1.51-9.64-5.25-18.4-11.21-26.06c-9.84-12.65-22.66-20.61-38.53-23.51
		c-6.27-1.15-12.58-1.34-18.89-0.63C91.1,48.32,79.97,52.64,70.13,59.9c-14.59,10.77-23.85,25.12-27.48,42.94
		c-2.49,12.23-1.96,24.4,1.33,36.44c2.58,9.43,6.51,18.23,12.49,25.99c2.69,3.49,5.81,6.67,8.88,9.85
		c3.46,3.59,7.46,6.55,11.61,9.31c7.37,4.92,15.34,8.51,23.85,10.95c8.2,2.35,16.58,3.5,25.09,3.24c4.6-0.14,9.19-0.85,13.77-1.46
		c5.35-0.72,10.48-2.37,15.49-4.32c9.08-3.55,17.38-8.44,24.87-14.72c10.04-8.43,17.93-18.54,23.65-30.32
		c4.71-9.7,7.6-19.92,8.58-30.68c0.91-9.93,0.53-19.81-1.4-29.6c-1.69-8.56-4.51-16.73-8.89-24.33c-3.24-5.63-1.96-12.39,3.33-16.11
		c3.02-2.12,6.38-3.83,10.37-3.02c3.39,0.69,5.99,2.65,7.92,5.37c1.44,2.04,2.62,4.3,3.66,6.58c3.02,6.59,5.48,13.39,7.14,20.46
		c0.92,3.92,1.54,7.91,2.29,11.88c0.11,0.58,0.18,1.16,0.27,1.74c0.13,0.09,0.26,0.18,0.39,0.27c0.35-0.46,0.67-0.96,1.06-1.39
		c7.1-7.68,15.15-14.21,24.05-19.69c7.44-4.58,15.33-8.24,23.65-10.91c12.42-3.98,25.17-5.65,38.2-4.75
		c6.35,0.44,12.6,1.53,18.77,3.16c9.93,2.62,19.22,6.67,27.84,12.23c10.17,6.56,18.92,14.69,26.2,24.39
		c4.89,6.51,9.11,13.43,12.2,20.95c2.03,4.93,3.75,10.01,5.24,15.13c3.05,10.5,4.04,21.26,3.34,32.16
		c-0.41,6.39-1.49,12.68-3.22,18.87c-3,10.8-7.93,20.62-14.83,29.42c-6.24,7.97-13.76,14.56-22.37,19.9
		c-4.93,3.06-9.97,5.87-15.37,8.02c-6.15,2.45-12.49,4.17-19.04,5.15c-6.72,1.01-13.47,1.16-20.22,0.55
		c-5.74-0.51-11.37-1.66-16.89-3.38c-11.04-3.43-20.89-8.95-29.51-16.63c-8.45-7.53-14.88-16.53-19.36-26.93
		c-2.34-5.41-4.08-11.01-5.13-16.79c-1.62-8.88-1.78-17.78-0.29-26.73c1.84-11.06,5.86-21.21,12.28-30.37
		c5.38-7.67,12.26-13.75,20.36-18.46c6.12-3.56,12.64-6.13,19.56-7.61c8.74-1.87,17.51-2.04,26.32-0.31
		c12.76,2.51,23.56,8.6,32.63,17.79c5.28,5.35,9.06,11.7,11.74,18.75c3.29,8.66,4.5,17.61,3.36,26.74
		c-2.16,17.42-10.73,30.75-26.44,38.96c-7.82,4.09-16.35,5-25.09,4.04c-5.98-0.66-11.68-2.25-17.03-5.02
		c-7.01-3.62-12.63-8.66-15.98-15.94c-1.9-4.13-2.75-8.53-2.53-13.06c0.15-3.1,0.41-6.23,1-9.28c1.33-6.86,4.86-12.54,10.07-17.13
		c5.72-5.04,12.37-7.68,20.05-6.76c6.26,0.75,11.77,3.14,15.03,8.99c2.37,4.23,2.54,8.74,1.21,13.35c-1.02,3.54-2.8,6.63-5.66,8.98
		c-0.86,0.71-1.93,1.32-3,1.61c-3.95,1.06-7.97,1.7-12.1,1.24c-0.15-0.02-0.3,0.06-0.72,0.15c0.42,0.8,0.73,1.55,1.17,2.21
		c3.15,4.66,7.78,6.05,13.07,5.61c5.41-0.45,10.28-2.48,14.25-6.19c5.76-5.38,8.27-12.19,7.71-19.99
		c-0.82-11.41-6.74-19.71-16.35-25.56c-5.66-3.44-11.76-5.49-18.45-5.65c-8.35-0.19-15.82,2.38-22.56,7.14
		c-8.58,6.05-14.54,14.13-18.16,23.98c-2.37,6.44-3.47,13.07-2.77,19.89c0.98,9.59,4.46,18.25,10.42,25.87
		c6.13,7.84,13.95,13.44,23.15,17.1c9.36,3.72,19.12,5.02,29.08,3.6c18.4-2.63,33.03-11.59,43.62-26.96
		c3.81-5.52,6.59-11.55,8.59-17.96c2.87-9.15,3.8-18.51,2.69-27.97c-2.38-20.22-11.76-36.58-28-48.91
		c-8.3-6.31-17.56-10.7-27.65-13.35c-9.58-2.51-19.28-3.43-29.12-2.17c-6.72,0.86-13.23,2.59-19.55,5.07
		c-8.9,3.49-16.99,8.32-24.23,14.54c-9.44,8.1-16.83,17.77-22.09,29.07c-3.4,7.29-5.69,14.91-6.93,22.83
		c-1.28,8.18-1.38,16.4-0.37,24.63c0.88,7.13,2.56,14.07,5.1,20.77c5.17,13.64,13.07,25.47,23.87,35.3
		c8.63,7.85,18.5,13.74,29.23,18.24c6.52,2.73,13.26,4.7,20.24,5.7c3.63,0.52,7.32,0.74,10.99,0.83c7.44,0.2,12.89,6.42,12.06,13.81
		c-0.26,2.28-0.41,4.54-1.73,6.51c-2.22,3.3-5.52,4.79-9.28,5.28c-1.93,0.25-3.92,0.24-5.86,0.07c-7.94-0.67-15.82-1.91-23.41-4.33
		c-5.65-1.8-11.13-4.16-16.68-6.27c-0.37-0.14-0.74-0.28-1.35-0.52c0.17,0.64,0.27,1.12,0.43,1.58c2.26,6.61,3.85,13.38,4.83,20.28
		c1.46,10.3,1.57,20.63,0.16,30.96c-0.86,6.27-2.25,12.4-4.18,18.44c-2.83,8.86-6.79,17.17-11.94,24.89
		c-3.24,4.85-6.9,9.38-10.96,13.61c-4.29,4.47-8.9,8.54-13.92,12.15c-6.32,4.54-13.13,8.22-20.35,11.15
		c-8.21,3.33-16.7,5.56-25.48,6.65c-7.18,0.89-14.38,1.25-21.58,0.4c-5.18-0.61-10.37-1.29-15.48-2.33
		c-3.72-0.76-7.35-2.08-10.96-3.29c-8.12-2.72-15.7-6.57-22.76-11.41c-12.64-8.67-22.62-19.73-29.42-33.52
		c-3.52-7.14-5.95-14.65-7.28-22.52c-1.72-10.13-1.98-20.29-0.48-30.44c1.85-12.53,6.4-24.05,13.47-34.57
		c3.6-5.36,7.76-10.22,12.5-14.6c10.57-9.78,22.87-16.24,36.92-19.38c6.69-1.5,13.48-2.06,20.3-1.62c4.25,0.27,8.53,0.78,12.68,1.71
		c10.46,2.35,20.15,6.53,28.89,12.86c9.43,6.83,16.93,15.31,22.4,25.58c3.95,7.4,6.2,15.31,7.04,23.64c0.7,6.9,0.33,13.74-1.1,20.5
		c-2.09,9.84-6.17,18.78-12.33,26.78c-8.32,10.79-19.17,17.79-32.11,21.68c-5.89,1.77-11.93,2.3-18.09,1.95
		c-5.36-0.3-10.58-1.24-15.58-3.08c-14.85-5.48-26.2-14.91-32.31-29.82c-3.85-9.4-4.77-19.13-1.99-29.01
		c1.62-5.74,4.3-10.99,7.94-15.76c3.52-4.61,7.59-8.58,12.45-11.75c5.89-3.84,12.29-6.1,19.36-6.1c4.49,0.01,8.81,1.04,12.74,3.18
		c4.32,2.35,8.55,4.93,11.85,8.67c7.03,7.99,10.09,17.22,7.65,27.75c-1.69,7.28-6.09,12.7-12.99,15.76
		c-5.1,2.26-10.15,1.56-14.78-1.41c-4.53-2.9-7.58-6.97-8.58-12.34c-0.22-1.17-0.18-2.49,0.14-3.64c1.04-3.79,2.41-7.45,4.77-10.66
		c0.57-0.77,0.02-1.07-0.58-1.09c-3.15-0.09-6.09,0.65-8.5,2.76c-5.47,4.78-7.1,11.12-6.61,17.99c0.65,9.26,5.71,15.83,13.85,19.89
		c9.85,4.91,19.7,4.12,29.36-0.81c3.89-1.99,7.44-4.48,10.46-7.63c3.47-3.61,6.19-7.78,7.73-12.56c4.87-15.07,1.35-28.72-7.37-41.35
		c-4.44-6.42-10.22-11.43-17.25-14.9c-3.4-1.68-7.01-2.8-10.73-3.63c-6.02-1.35-12.07-1.55-18.15-0.65
		c-8.36,1.24-15.97,4.37-22.91,9.17c-9.38,6.49-16.29,15.01-20.7,25.47c-3.83,9.08-5.44,18.61-4.71,28.47
		c1.16,15.59,7.5,28.88,18.13,40.18c5.56,5.91,12.08,10.56,19.34,14.19c4.91,2.46,10.04,4.22,15.39,5.48
		c17.01,4.01,33.17,1.54,48.67-6.18c6.12-3.05,11.74-6.89,16.81-11.44c8.7-7.81,15.68-16.93,20.19-27.78
		c3.53-8.47,5.6-17.33,6.13-26.51c1.19-20.66-4.24-39.43-16.37-56.19c-8.12-11.21-18.47-19.91-30.89-26.02
		c-4.54-2.23-9.25-4.19-14.05-5.75c-4.2-1.37-8.62-2.14-12.98-2.95c-6.82-1.28-13.72-1.4-20.64-0.92
		c-10.84,0.75-21.19,3.38-31.06,7.92c-7,3.21-13.58,7.15-19.71,11.79c-4.48,3.39-8.63,7.16-12.4,11.36
		c-3.73,4.15-6.99,8.61-9.81,13.42c-2.34,3.99-7.54,6.19-12.12,5.39c-3.82-0.66-6.88-2.69-9.24-5.55
		c-3.11-3.78-2.72-8.16-0.93-12.37c0.95-2.22,2.24-4.36,3.73-6.26c3.64-4.64,7.33-9.28,11.31-13.63c4.03-4.4,8.54-8.34,13.38-11.86
		C96.45,221.97,96.88,221.56,97.55,220.99z M194.21,199.56c7.3,1.54,14.5,3.65,21.46,6.62c-2.1-7.49-4.15-14.81-6.12-21.82
		C204.63,189.23,199.46,194.35,194.21,199.56z"/>
</g>
</svg>
