<?xml version="1.0" encoding="utf-8"?>
<!-- Generator: Adobe Illustrator 23.0.0, SVG Export Plug-In . SVG Version: 6.00 Build 0)  -->
<svg version="1.1" id="Layer_1" xmlns="http://www.w3.org/2000/svg" xmlns:xlink="http://www.w3.org/1999/xlink" x="0px" y="0px"
	 viewBox="0 0 432 432" style="enable-background:new 0 0 432 432;" xml:space="preserve">
<g>
	<path d="M100.79,238.53c-0.59,0.83-1.25,1.62-1.75,2.5c-2.8,4.93-5.54,9.88-8.34,14.81c-0.47,0.82-1.08,1.56-1.7,2.45
		c-2.98-1.71-5.91-3.39-8.84-5.06c-3.4-1.93-6.8-3.84-10.2-5.77c-1.91-1.08-3.81-2.17-5.71-3.26c-3.91-2.24-7.82-4.47-11.72-6.73
		c-3.52-2.03-7.02-4.1-10.55-6.12c-3.63-2.08-7.29-4.1-10.93-6.16c-4.12-2.34-8.24-4.7-12.36-7.05c-2.84-1.62-5.68-3.23-8.52-4.86
		c-1.18-0.68-1.22-1.05-0.43-2.16c4.05-5.74,8.07-11.5,12.12-17.24c2.3-3.26,4.67-6.47,6.95-9.75c2.76-3.96,5.42-7.99,8.2-11.94
		c3.71-5.28,7.52-10.51,11.25-15.78c2.53-3.58,4.97-7.23,7.49-10.82c3.52-5.04,7.09-10.04,10.61-15.08
		c3.84-5.49,7.64-11.01,11.48-16.49c3.2-4.57,6.48-9.09,9.64-13.7c2.44-3.56,4.96-7.02,7.91-10.19c3.05-3.27,6.22-6.39,9.72-9.18
		c2.22-1.77,4.38-3.61,6.53-5.45c0.72-0.62,1.27-0.59,2.1-0.07c5.07,3.18,10.24,6.14,15.94,8.15c3.73,1.32,7.47,2.47,11.34,3.32
		c5.88,1.29,11.8,1.82,17.81,1.64c6.3-0.19,12.53-0.93,18.56-2.69c8.21-2.4,15.92-5.99,22.94-10.94c5.5-3.88,10.48-8.38,14.78-13.57
		c3.77-4.56,7.14-9.4,9.75-14.74c0.12-0.25,0.31-0.48,0.4-0.74c0.58-1.86,1.81-2.14,3.59-1.77c5.34,1.1,10.73,2,16.07,3.11
		c5.58,1.15,10.77,3.39,15.92,5.79c7.19,3.35,14.46,6.51,21.68,9.8c4.97,2.26,9.9,4.62,14.86,6.91c3.33,1.53,6.71,2.99,10.04,4.51
		c3.44,1.57,6.86,3.22,10.31,4.78c4.25,1.92,8.53,3.78,12.79,5.69c2.4,1.08,4.76,2.24,7.15,3.33c3.92,1.79,7.84,3.56,11.76,5.34
		c5.55,2.53,11.1,5.09,16.65,7.61c4.36,1.98,8.74,3.92,13.1,5.88c1.82,0.82,3.64,1.64,5.47,2.44c0.91,0.4,0.89,1.01,0.47,1.74
		c-0.83,1.46-1.67,2.91-2.51,4.36c-2.01,3.45-4.04,6.89-6.02,10.36c-1.9,3.33-3.72,6.69-5.62,10.02c-2.06,3.6-4.19,7.16-6.26,10.76
		c-1.11,1.94-2.16,3.91-3.25,5.86c-1.05,1.88-2.12,3.75-3.19,5.62c-2.2,3.84-4.39,7.69-6.59,11.52c-1.13,1.97-2.31,3.92-3.43,5.89
		c-2.24,3.92-4.45,7.84-6.68,11.76c-0.43,0.76-0.86,1.54-1.4,2.22c-0.17,0.22-0.78,0.32-1.04,0.19c-2.3-1.19-4.58-2.43-6.84-3.71
		c-2.12-1.2-4.18-2.48-6.28-3.71c-1.38-0.81-2.76-1.61-4.17-2.36c-0.65-0.35-1.37-0.55-2.32-0.92c0.06,0.6,0.05,0.94,0.13,1.26
		c3.8,13.97,7.61,27.94,11.42,41.9c0.43,1.58,0.45,1.62,1.95,1.08c3.07-1.1,6.12-2.27,9.19-3.37c3.6-1.29,7.21-2.54,10.82-3.8
		c3.27-1.14,6.54-2.27,9.81-3.39c1.39-0.48,2.79-0.95,4.18-1.41c3.77-1.26,7.55-2.52,11.33-3.76c4.73-1.55,9.44-3.15,14.2-4.62
		c4.26-1.31,8.55-2.49,12.84-3.69c3.61-1.01,7.21-2.01,10.85-2.89c1.63-0.39,3.32-0.49,4.99-0.71c0.07,0.16,0.14,0.32,0.2,0.49
		c-0.66,0.62-1.28,1.29-1.99,1.85c-2.01,1.57-4.03,3.11-6.09,4.61c-2.05,1.49-4.13,2.96-6.24,4.36c-2.81,1.86-5.67,3.64-8.5,5.46
		c-1.27,0.82-2.51,1.69-3.78,2.5c-2.94,1.88-5.88,3.76-8.83,5.62c-2.49,1.57-4.99,3.15-7.5,4.69c-3.22,1.97-6.45,3.92-9.69,5.86
		c-4.06,2.44-8.11,4.9-12.19,7.3c-3.33,1.95-6.7,3.83-10.05,5.74c-2.31,1.32-4.59,2.71-6.96,3.9c-1.13,0.57-1.21,1.17-0.91,2.26
		c4.17,15.2,8.35,30.39,12.41,45.61c1.28,4.82,2.58,9.7,3.17,14.63c0.52,4.32,0.62,8.78-0.5,13.11c-0.89,3.43-1.61,6.94-2.88,10.23
		c-0.96,2.5-2.46,4.87-4.09,7.01c-1.72,2.27-3.75,4.35-5.87,6.26c-2.92,2.63-6.49,4.28-10.23,5.33
		c-13.52,3.79-27.07,7.44-40.62,11.13c-36.31,9.89-72.63,19.76-108.93,29.67c-3.86,1.05-7.8,1.68-11.73,1.3
		c-2.97-0.29-5.95-1.19-8.77-2.24c-2.56-0.95-5.05-2.25-7.3-3.8c-2.42-1.66-4.62-3.67-6.71-5.74c-1.66-1.65-3.18-3.5-4.47-5.45
		c-2.45-3.73-4.96-7.47-6.21-11.84c-2.27-7.92-4.57-15.83-6.73-23.77c-9.26-33.91-18.48-67.84-27.71-101.76
		c-0.1-0.37-0.23-0.74-0.34-1.11C101.06,238.63,100.92,238.58,100.79,238.53z M355.25,119.71c-1.04-0.56-2.05-1.19-3.13-1.68
		c-6.39-2.89-12.8-5.74-19.19-8.64c-6.97-3.16-13.93-6.35-20.88-9.54c-4.38-2.01-8.74-4.09-13.13-6.1
		c-6.64-3.03-13.3-6.02-19.94-9.05c-2.97-1.36-5.91-2.78-8.89-4.13c-2.54-1.15-5.11-2.21-7.65-3.36
		c-5.19-2.36-10.33-4.85-15.57-7.09c-2.41-1.02-5.02-1.54-7.53-2.34c-1.72-0.55-1.91-0.51-2.98,0.96
		c-3.31,4.56-6.88,8.9-10.91,12.85c-4.43,4.34-9.12,8.36-14.35,11.71c-1.78,1.14-3.43,2.52-5.3,3.5c-3.46,1.82-7.05,3.4-10.56,5.14
		c-4.58,2.27-9.46,3.67-14.35,5.03c-4.99,1.38-10.1,2.05-15.23,2.55c-3.22,0.32-6.47,0.6-9.69,0.46c-4.54-0.19-9.08-0.62-13.58-1.24
		c-3.86-0.53-7.75-1.17-11.46-2.3c-4.99-1.51-9.81-3.56-14.73-5.3c-0.57-0.2-1.57-0.17-1.94,0.19c-1.88,1.84-3.76,3.71-5.39,5.77
		c-2.03,2.56-3.84,5.3-5.71,7.99c-2.69,3.87-5.33,7.78-8.03,11.64c-2.42,3.46-4.92,6.87-7.36,10.32c-3.08,4.37-6.14,8.75-9.2,13.13
		c-2.95,4.22-5.89,8.45-8.85,12.66c-2.2,3.13-4.44,6.24-6.64,9.38c-1.83,2.61-3.62,5.25-5.45,7.87c-2.59,3.69-5.21,7.37-7.79,11.06
		c-1.51,2.16-2.98,4.34-4.48,6.5c-1.61,2.33-3.24,4.65-4.83,7c-0.27,0.4-0.67,0.87,0.07,1.29c2.67,1.52,5.31,3.09,7.98,4.6
		c3.54,2,7.11,3.95,10.64,5.97c3.36,1.92,6.67,3.92,10.03,5.84c3.53,2.02,7.1,3.98,10.64,5.97c1.34,0.75,1.36,0.78,2.16-0.61
		c2.26-3.91,4.49-7.83,6.74-11.75c2.98-5.2,5.97-10.39,8.95-15.59c3.12-5.44,6.23-10.89,9.35-16.33c0.2-0.35,0.49-0.66,0.87-1.17
		c0.2,0.53,0.33,0.81,0.41,1.11c0.52,1.89,1.03,3.78,1.54,5.67c15,55.11,30.01,110.21,45.02,165.32c1.79,6.56,5.1,12.11,10.87,15.97
		c2.81,1.88,5.87,2.56,9.13,1.68c16.64-4.5,33.26-9.07,49.89-13.6c32.96-8.98,65.91-17.95,98.87-26.93
		c2.09-0.57,3.95-1.62,5.28-3.35c1.86-2.4,3.09-5.14,3.68-8.11c0.92-4.67,0.64-9.3-0.61-13.88c-4.19-15.4-8.39-30.79-12.59-46.19
		c-0.12-0.45-0.27-0.9-0.42-1.4c-0.29,0.06-0.49,0.06-0.66,0.14c-2.81,1.39-5.59,2.84-8.42,4.18c-3.88,1.84-7.78,3.67-11.72,5.36
		c-1.63,0.7-3.38,1.23-5.13,1.54c-4.2,0.73-8.44,1.27-12.66,1.92c-1.34,0.2-1.29,0.1-1.6-1.16c-0.74-3.09-1.43-6.22-2.56-9.18
		c-0.99-2.58-2.53-4.95-3.89-7.38c-0.35-0.63-0.28-0.93,0.27-1.37c1.78-1.45,3.47-3.01,5.25-4.46c1.85-1.5,3.66-3.12,5.7-4.32
		c3.15-1.84,6.44-3.47,9.76-5c5.31-2.45,10.69-4.75,16.05-7.08c2.08-0.9,2.1-0.86,1.55-2.88c-8.5-31.22-17.01-62.43-25.51-93.65
		c-0.1-0.35-0.12-0.72-0.22-1.32c0.49,0.25,0.73,0.36,0.96,0.49c5.65,3.23,11.29,6.46,16.94,9.69c6.35,3.62,12.7,7.23,19.05,10.85
		c2.77,1.58,5.53,3.19,8.34,4.71c0.4,0.22,1.36,0.21,1.52-0.04c1.56-2.5,3.03-5.06,4.49-7.63c1.2-2.12,2.31-4.28,3.52-6.39
		c1.95-3.39,3.99-6.72,5.92-10.11C349.08,130.72,352.09,125.33,355.25,119.71z"/>
	<path d="M192.34,287.36c4.23,0.5,7.76-0.98,11.28-2.24c2.23-0.79,4.36-1.96,6.39-3.19c2.4-1.46,4.78-3.03,6.94-4.83
		c2.41-2,4.67-4.21,6.8-6.51c3.2-3.45,6.51-6.78,10.35-9.5c4.09-2.9,8.53-5.15,13.54-5.97c4.68-0.78,9.24-0.33,13.51,1.88
		c0.64,0.33,1.21,0.88,1.68,1.44c2.15,2.55,3.62,5.51,4.83,8.6c1.42,3.63,2.19,7.4,2.37,11.29c0.02,0.37-0.08,0.82-0.3,1.12
		c-2.15,3.01-4.2,6.1-6.54,8.97c-2,2.45-4.13,4.88-6.57,6.85c-2.66,2.15-5.69,3.88-8.67,5.58c-3.39,1.93-7.17,2.88-11,3.39
		c-4.57,0.61-9.14,0.25-13.68-0.75c-9.54-2.09-17.98-6.48-25.84-12.13c-1.33-0.95-2.63-1.94-3.94-2.93
		C193.17,288.17,192.88,287.86,192.34,287.36z"/>
</g>
</svg>
